<svg width="272" height="48" viewBox="0 0 272 48" fill="none" xmlns="http://www.w3.org/2000/svg">
<g clip-path="url(#clip0_1_546)">
<path d="M20.528 47.6704C16.844 47.2282 13.1601 46.786 9.47614 46.3437C6.87456 46.0315 2.25536 46.3618 0.783474 43.6538C0.0164087 42.2424 0.0477992 40.5497 0.0987478 38.9443C0.218582 35.1682 0.673438 30.8985 0.433157 27.1282C0.382219 26.3289 0.3322 25.5167 0.507066 24.7352C0.681932 23.9536 1.11567 23.1926 1.81875 22.809C4.13956 21.5428 16.0306 23.6059 18.6652 24.072C19.8957 24.2897 21.1592 24.5196 22.2236 25.1743C23.288 25.8289 24.1219 27.0159 23.9853 28.258C23.4321 33.2913 23.9184 38.3192 23.4795 43.3638C23.3753 44.5609 23.6379 45.7285 23.0183 46.758C22.3988 47.7876 21.721 47.8136 20.528 47.6704Z" fill="#FF6D41"/>
<path d="M18.6266 44.8372C15.768 44.494 12.9094 44.1509 10.0508 43.8078C8.03212 43.5654 4.4478 43.8217 3.30567 41.7204C2.71046 40.6253 2.73482 39.3118 2.77435 38.0661C2.86734 35.136 3.22029 31.8229 3.03384 28.8972C2.99432 28.277 2.9555 27.6468 3.09119 27.0403C3.22688 26.4339 3.56344 25.8434 4.10901 25.5457C5.90987 24.5632 15.1369 26.1641 17.1812 26.5258C18.136 26.6947 19.1164 26.8731 19.9424 27.3811C20.7683 27.8891 21.4153 28.8101 21.3094 29.774C20.8801 33.6796 21.2575 37.5811 20.9169 41.4955C20.8361 42.4244 21.0398 43.3303 20.5591 44.1292C20.0783 44.9282 19.5524 44.9483 18.6266 44.8372Z" fill="white"/>
<path d="M18.5863 45.1621C9.25797 44.0673 10.4283 44.137 8.72052 44.0297C6.6274 43.8973 4.02203 43.7329 3.01094 41.8729C2.22081 40.4188 2.38276 38.6257 2.57977 35.181C2.70072 33.0738 2.82559 30.8947 2.69908 28.9108C2.66051 28.305 2.6167 27.6185 2.76413 26.9595C2.93706 26.1857 3.36857 25.5604 3.94783 25.2443C5.88751 24.1864 15.0371 25.7991 17.2388 26.1887C18.1701 26.3534 19.2257 26.5401 20.1171 27.0886C21.1547 27.7264 21.7529 28.7918 21.6414 29.8029C21.2162 33.6697 21.5912 37.5977 21.2498 41.5169C21.1677 42.4612 21.384 43.3991 20.8451 44.2942C20.4038 45.0278 19.6203 45.286 18.5863 45.1621ZM18.666 44.4972C19.5882 44.6083 19.9099 44.5492 20.2717 43.949C20.6957 43.2447 20.5002 42.403 20.583 41.4587C20.7422 39.6297 20.7431 37.7661 20.7444 35.9639C20.7454 33.9237 20.7467 31.8143 20.9759 29.7296C21.0707 28.8709 20.4368 28.071 19.7667 27.6587C18.9834 27.1772 18.0374 27.0098 17.1224 26.8477C15.2437 26.5153 5.95981 24.9087 4.26884 25.832C3.85859 26.0556 3.54836 26.5202 3.41727 27.106C3.29077 27.6712 3.32967 28.2798 3.36726 28.8683C3.49638 30.8927 3.3702 33.0921 3.24827 35.2192C2.88668 41.5058 2.614 42.9729 8.76302 43.3616C10.5178 43.4723 9.35553 43.4049 18.666 44.4972Z" fill="#1A1A1A"/>
<path d="M8.80539 41.1924C8.45528 41.0829 8.03424 40.7665 7.54128 40.2431C7.15435 39.6759 7.49268 30.4319 7.5233 29.7481C7.54749 29.4137 7.70244 29.1855 7.98847 29.0636C8.51075 28.8573 9.00698 28.8617 9.07442 28.8537C9.43957 28.8537 9.76189 28.9907 10.042 29.2643C10.1878 29.4532 10.3006 29.9063 10.3797 30.6242C10.6595 30.022 11.0718 29.5078 11.6164 29.0819C12.1607 28.6563 12.8831 28.4431 13.7837 28.4431C15.1769 28.4431 16.0164 29.0211 16.3024 30.177C16.6601 31.5884 16.3898 32.8573 15.8735 34.2426C15.478 35.3044 14.7814 36.1487 13.7837 36.7754C14.4379 37.0083 14.7208 37.2181 14.9837 37.5008C15.2315 37.7671 15.3718 38.1473 15.3718 38.4635C15.3718 38.622 15.3319 38.8319 15.2531 39.0934C15.174 39.3549 14.9638 39.6926 14.6232 40.1061C14.0877 40.6903 13.4248 41.0221 12.6337 41.1009C11.8945 41.1735 11.1277 41.1418 10.3889 40.9734C10.1307 41.5219 9.38328 41.3734 8.80539 41.1924ZM11.1738 35.1053C12.1172 35.1053 13.2826 34.0347 13.6559 33.1521C13.8494 32.696 13.7717 32.34 13.3548 32.0844C12.29 31.5938 11.2181 32.9342 10.6625 33.9461C10.2869 34.6335 10.3999 35.1053 11.1738 35.1053ZM10.5164 39.2209C10.892 39.3821 11.719 39.1558 12.1136 38.9931C12.3934 38.8773 12.5333 38.7528 12.5333 38.6188C12.5333 38.2232 12.1319 38.0254 11.3287 38.0254C10.8603 38.0254 10.5925 38.1565 10.5255 38.418V38.4272C10.4092 38.6886 10.4617 39.0472 10.5164 39.1846V39.2209Z" fill="#FF6D41"/>
<path d="M43.4623 46.7716C44.6299 46.6076 45.7146 45.9232 46.3654 44.94C47.2343 43.6271 47.3579 41.4812 47.4338 39.9239C47.5857 36.8097 47.7012 29.1123 47.8156 27.5499C47.9219 26.0984 48.1228 24.5751 47.4231 23.2181C46.8897 22.1836 46.0276 21.6005 44.864 21.6231C40.0468 21.717 35.2577 22.5362 25.9541 23.3257C24.6149 23.4393 23.5279 23.5577 22.6304 24.6857C21.7543 25.7868 21.9798 26.969 21.8865 28.2575C21.6604 31.378 21.9983 35.3265 22.047 37.4706C22.0667 38.3354 22.0076 39.1986 21.9973 40.0629C21.9877 40.873 22.1593 41.715 22.0781 42.5148C21.938 43.8941 21.7626 45.4019 22.673 46.5977C23.7889 48.0635 25.9502 48.0745 27.7882 47.948C33.1192 47.5811 38.1707 47.5153 43.4623 46.7716Z" fill="#00936D"/>
<path d="M41.3994 43.8981C42.2863 43.7735 43.1101 43.2537 43.6044 42.5069C44.5439 41.0873 44.4247 38.4072 44.5719 33.6403C44.6165 32.1975 44.6005 30.7381 44.7059 29.2986C44.7866 28.1962 44.9392 27.0392 44.4078 26.0085C43.522 24.2907 41.3287 24.6948 39.7517 24.8549C28.6317 25.9841 29.9029 25.8696 28.5679 25.9906C27.4244 26.0942 26.3574 26.1424 25.577 27.1232C24.8616 28.0224 24.9919 29.1098 25.0523 30.1773C25.1102 31.2002 25.0403 32.1939 25.1239 33.2365C25.2774 35.1499 25.2443 37.0717 25.2156 38.9891C25.1941 40.4281 24.6773 42.5417 25.6094 43.766C26.457 44.8793 28.0985 44.8876 29.4945 44.7916C33.5436 44.5129 37.3803 44.4629 41.3994 43.8981Z" fill="white"/>
<path d="M25.3296 43.9731C24.2961 42.6165 24.8434 40.4328 24.8639 38.9779C24.9528 33.1 24.7273 34.2886 24.7273 31.5526C24.7273 29.2702 24.3578 28.0854 25.3015 26.8984C26.1413 25.8436 27.2402 25.7491 28.5366 25.6342C29.4093 25.555 40.0366 24.4644 40.1096 24.4569C41.664 24.2848 43.7953 24.0479 44.7205 25.8416C45.284 26.9331 45.1529 28.0962 45.0571 29.3182C44.9961 30.1439 44.8702 36.6075 44.7672 38.7083C44.7116 39.8574 44.6264 41.5938 43.8977 42.6949C43.3495 43.5239 42.4339 44.1019 41.4483 44.2403C37.3921 44.8106 33.5836 44.8558 29.5188 45.1367C27.9909 45.2401 26.2619 45.1975 25.3296 43.9731ZM40.1872 25.1558C38.2771 25.3498 44.4154 24.7304 28.4336 26.3496C27.3964 26.4416 26.5014 26.5209 25.8523 27.3362C25.104 28.2765 25.4306 29.2534 25.4306 31.5529C25.4306 34.0488 25.6542 33.2549 25.5673 38.9882C25.5454 40.4078 25.0578 42.4554 25.8888 43.5469C26.6106 44.4938 28.038 44.5346 29.4708 44.4347C30.692 44.3506 31.894 44.2874 33.0878 44.2245C39.755 43.8737 40.5042 43.6266 41.3508 43.5438C42.1393 43.4329 42.8722 42.9707 43.3111 42.3068C44.1909 40.9773 44.0792 38.2886 44.2205 33.6235C44.2647 32.2196 44.2484 30.7281 44.3551 29.267C44.439 28.1985 44.5721 27.0877 44.0955 26.1638C43.3942 24.8043 41.7014 24.9885 40.1872 25.1558Z" fill="#1A1A1A"/>
<path d="M33.0928 41.3139C30.4448 39.3275 30.5245 35.1483 31.4395 31.9176C32.4812 28.227 35.9081 27.4958 37.9255 29.7268C38.852 30.7529 39.0183 31.5924 39.0183 32.9819C39.0183 33.3768 38.9168 34.1066 38.6351 34.3721C37.9352 34.9317 37.5297 34.8479 37.1054 34.7701C36.8788 34.7285 36.6535 34.6214 36.4295 34.449C36.2956 34.3401 36.2283 34.2058 36.2283 34.0461C36.2283 33.8419 36.6367 32.4584 36.161 32.023C35.9406 31.792 35.629 31.8211 35.3938 31.8265C34.9265 31.8385 34.2363 32.241 33.9273 33.0347C33.7418 33.5107 33.6265 33.9823 33.5818 34.449C33.186 39.4907 35.6752 39.6697 36.1706 38.4757C36.3863 37.9615 36.2875 37.4884 36.1417 36.9032C36.1128 36.6941 36.1494 36.5255 36.3334 36.376C36.6562 36.127 37.1989 36.002 37.4461 36.002C37.7909 36.002 38.1556 36.1555 38.5389 36.4622C38.5998 36.5231 38.6954 36.6906 38.7498 36.8073C39.3095 38.2766 39.2444 39.5587 38.3473 40.8726C38.0376 41.3276 36.9841 42.0289 35.279 42.0423C34.3176 41.9436 33.7346 41.7265 33.0928 41.3139Z" fill="#00936D"/>
<path d="M32.1237 23.0871C33.6301 22.6919 34.5466 21.1091 34.7889 19.5707C35.1686 17.1589 34.5441 14.7488 34.5434 12.3442C34.5425 9.62538 34.3104 6.9116 34.2458 4.19429C34.1253 -0.877062 28.342 0.328744 23.5617 0.694067C20.9073 0.896918 18.2584 1.17119 15.6189 1.51654C13.7594 1.75983 12.3307 2.13891 11.822 4.13406C11.204 6.55828 11.6442 9.11739 11.549 11.5807C11.4719 13.573 11.4625 15.568 11.5208 17.561C11.5736 19.3652 11.6348 21.135 12.6303 22.7112C13.9262 24.7028 16.5016 24.6668 18.6039 24.3769C22.5042 23.839 26.43 23.074 30.3814 23.1871C30.966 23.2039 31.5592 23.2352 32.1237 23.0871Z" fill="#FEB436"/>
<path d="M12.3723 22.8842C11.3198 21.2181 11.2655 19.3662 11.2129 17.5755C11.087 13.2449 11.3247 12.2769 11.2162 9.09198C11.1601 7.4325 11.1022 5.71657 11.5236 4.06369C12.088 1.85093 13.7637 1.45467 15.5784 1.21752C20.3632 0.590874 22.6709 0.493136 25.1931 0.240378C29.8637 -0.22499 34.4411 -0.515707 34.5527 4.19277C34.617 6.8988 34.8494 9.63168 34.8505 12.3497C34.8505 14.7084 35.4784 17.1696 35.0924 19.6241C34.8643 21.0713 33.9703 22.926 32.2015 23.3898C32.0304 23.4348 31.8563 23.4648 31.681 23.4843C31.2505 23.5314 30.8123 23.5134 30.3721 23.5002C21.6506 23.2501 15.0305 26.9713 12.3723 22.8842ZM23.5847 1.00618C20.9435 1.20821 18.2766 1.48439 15.6583 1.82692C13.9408 2.05147 12.5899 2.36998 12.1192 4.21559C11.5172 6.57798 11.9505 9.1389 11.8554 11.5983C11.7791 13.5748 11.7698 15.5798 11.8277 17.5575C11.8776 19.2657 11.9292 21.032 12.8898 22.5525C14.4592 24.9658 18.0703 24.1599 20.9231 23.7341C30.9745 22.2323 30.4268 23.2188 32.0454 22.7954C33.5272 22.4066 34.2855 20.7925 34.4848 19.5283C34.8554 17.1749 34.2357 14.75 34.2357 12.3497C34.2346 9.65364 34.0034 6.92363 33.9379 4.20718C33.8249 -0.536954 28.3282 0.643715 23.5847 1.00618Z" fill="#1A1A1A"/>
<path d="M29.9203 20.4597C31.0548 20.1621 31.7451 18.97 31.9275 17.8114C32.2135 15.995 31.7432 14.1799 31.7426 12.3689C31.742 10.3212 31.5672 8.27741 31.5185 6.23092C31.4283 2.43217 27.2101 3.30911 23.472 3.59478C21.4729 3.74756 19.4779 3.95412 17.49 4.21421C16.0895 4.39744 15.0136 4.68295 14.6305 6.18556C14.165 8.01131 14.4966 9.93866 14.4248 11.7938C14.3668 13.2943 14.3597 14.7968 14.4036 16.2978C14.4434 17.6566 14.4895 18.9895 15.2392 20.1766C17.136 23.0918 22.0597 20.3476 28.6081 20.535C29.0484 20.5476 29.4952 20.5713 29.9203 20.4597Z" fill="white"/>
<path d="M20.1341 18.1213C19.933 17.9706 19.785 17.3168 19.6899 16.1604C19.569 14.6718 19.6538 13.2661 19.7904 11.7604C19.8967 10.5927 20.1873 9.44053 20.6619 8.30338C21.1374 7.16653 21.8519 6.59796 22.8077 6.59796C24.8441 6.62545 25.7016 6.47784 26.4449 8.41235C26.9616 9.75721 27.3708 13.5596 26.8351 16.4495C26.6646 17.363 26.4701 17.9202 26.2516 18.1213C26.0618 18.3002 25.7857 18.4065 25.423 18.4398C25.0726 18.4814 24.7444 18.448 24.3627 18.3059C24.0913 18.2054 23.9557 18.0154 23.9557 17.7359C23.9557 17.6118 24.0469 16.8165 24.1322 15.8251C23.155 15.9553 22.3821 15.8915 22.313 15.8921C22.2625 16.4843 22.1869 17.1298 22.0872 17.828C21.997 18.2859 21.5529 18.2543 20.9387 18.2975C20.6595 18.2975 20.3911 18.2387 20.1341 18.1213ZM22.6948 11.2702C22.5687 11.843 22.4919 12.6208 22.4643 13.6043C22.527 13.6025 23.498 13.6298 24.2823 13.4869C24.3225 12.6716 24.3243 11.7174 24.215 10.9055C24.137 10.3135 23.9725 10.0172 23.7215 10.0172C23.4773 10.0172 22.8764 10.4375 22.6948 11.2702Z" fill="#FEB436"/>
</g>
<path d="M69.1079 28.6421C69.1079 28.299 69.0575 27.9912 68.9565 27.7188C68.8556 27.4362 68.6689 27.1738 68.3965 26.9316C68.124 26.6895 67.7305 26.4473 67.2158 26.2051C66.7113 25.9528 66.0452 25.6904 65.2178 25.418C64.249 25.0951 63.3156 24.7318 62.4175 24.3281C61.5194 23.9144 60.7171 23.4351 60.0107 22.8901C59.3044 22.3351 58.7443 21.6893 58.3306 20.9526C57.9168 20.2059 57.71 19.3381 57.71 18.3491C57.71 17.4006 57.9219 16.5479 58.3457 15.791C58.7695 15.0241 59.3599 14.3732 60.1167 13.8384C60.8836 13.2935 61.7817 12.8797 62.811 12.5972C63.8403 12.3045 64.9655 12.1582 66.1865 12.1582C67.8011 12.1582 69.224 12.4408 70.4551 13.0059C71.6963 13.5609 72.665 14.353 73.3613 15.3823C74.0677 16.4015 74.4209 17.6074 74.4209 19H69.1382C69.1382 18.445 69.0221 17.9556 68.79 17.5317C68.568 17.1079 68.23 16.7749 67.7759 16.5327C67.3218 16.2905 66.7516 16.1694 66.0654 16.1694C65.3994 16.1694 64.8394 16.2703 64.3853 16.4722C63.9312 16.674 63.5881 16.9465 63.356 17.2896C63.1239 17.6226 63.0078 17.9909 63.0078 18.3945C63.0078 18.7275 63.0986 19.0303 63.2803 19.3027C63.472 19.5651 63.7394 19.8123 64.0825 20.0444C64.4357 20.2765 64.8595 20.4985 65.354 20.7104C65.8586 20.9224 66.4237 21.1292 67.0493 21.3311C68.2199 21.7044 69.2593 22.1232 70.1675 22.5874C71.0858 23.0415 71.8577 23.5612 72.4834 24.1465C73.1191 24.7217 73.5985 25.3776 73.9214 26.1143C74.2544 26.8509 74.4209 27.6834 74.4209 28.6118C74.4209 29.6007 74.2292 30.4787 73.8457 31.2456C73.4622 32.0125 72.9123 32.6634 72.1958 33.1982C71.4793 33.723 70.6216 34.1216 69.6226 34.394C68.6235 34.6665 67.5085 34.8027 66.2773 34.8027C65.1471 34.8027 64.0321 34.6615 62.9321 34.3789C61.8423 34.0863 60.8534 33.6423 59.9653 33.0469C59.0773 32.4414 58.3659 31.6694 57.8311 30.731C57.3063 29.7824 57.0439 28.6572 57.0439 27.3555H62.3721C62.3721 28.0013 62.4578 28.5462 62.6294 28.9902C62.8009 29.4342 63.0532 29.7925 63.3862 30.0649C63.7192 30.3273 64.1279 30.519 64.6123 30.6401C65.0967 30.7511 65.6517 30.8066 66.2773 30.8066C66.9535 30.8066 67.4984 30.7108 67.9121 30.519C68.3258 30.3172 68.6286 30.0549 68.8203 29.7319C69.012 29.3989 69.1079 29.0356 69.1079 28.6421ZM85.5464 18.1221V21.6641H75.6772V18.1221H85.5464ZM77.751 14.0503H82.8521V29.1567C82.8521 29.5907 82.9025 29.9287 83.0034 30.1709C83.1043 30.403 83.2759 30.5695 83.5181 30.6704C83.7703 30.7612 84.1034 30.8066 84.5171 30.8066C84.8097 30.8066 85.0519 30.8016 85.2437 30.7915C85.4354 30.7713 85.617 30.7461 85.7886 30.7158V34.3638C85.3547 34.505 84.9006 34.611 84.4263 34.6816C83.952 34.7624 83.4474 34.8027 82.9126 34.8027C81.8228 34.8027 80.8893 34.6312 80.1123 34.2881C79.3454 33.945 78.7601 33.4051 78.3564 32.6685C77.9528 31.9318 77.751 30.9731 77.751 29.7925V14.0503ZM92.9634 18.1221V34.5H87.8472V18.1221H92.9634ZM87.5444 13.8989C87.5444 13.1724 87.8068 12.577 88.3315 12.1128C88.8563 11.6486 89.5374 11.4165 90.375 11.4165C91.2126 11.4165 91.8937 11.6486 92.4185 12.1128C92.9432 12.577 93.2056 13.1724 93.2056 13.8989C93.2056 14.6255 92.9432 15.2209 92.4185 15.6851C91.8937 16.1493 91.2126 16.3813 90.375 16.3813C89.5374 16.3813 88.8563 16.1493 88.3315 15.6851C87.8068 15.2209 87.5444 14.6255 87.5444 13.8989ZM104.74 18.1221V21.6641H94.8706V18.1221H104.74ZM96.9443 14.0503H102.045V29.1567C102.045 29.5907 102.096 29.9287 102.197 30.1709C102.298 30.403 102.469 30.5695 102.711 30.6704C102.964 30.7612 103.297 30.8066 103.71 30.8066C104.003 30.8066 104.245 30.8016 104.437 30.7915C104.629 30.7713 104.81 30.7461 104.982 30.7158V34.3638C104.548 34.505 104.094 34.611 103.62 34.6816C103.145 34.7624 102.641 34.8027 102.106 34.8027C101.016 34.8027 100.083 34.6312 99.3057 34.2881C98.5387 33.945 97.9535 33.4051 97.5498 32.6685C97.1462 31.9318 96.9443 30.9731 96.9443 29.7925V14.0503ZM113.686 30.8672C114.16 30.8672 114.563 30.7814 114.896 30.6099C115.24 30.4282 115.497 30.1759 115.668 29.853C115.85 29.52 115.936 29.1214 115.926 28.6572H120.724C120.734 29.8883 120.431 30.9681 119.816 31.8965C119.21 32.8148 118.383 33.5312 117.333 34.0459C116.294 34.5505 115.118 34.8027 113.807 34.8027C112.525 34.8027 111.405 34.5959 110.446 34.1821C109.488 33.7583 108.685 33.173 108.04 32.4263C107.404 31.6694 106.924 30.7865 106.602 29.7773C106.289 28.7682 106.132 27.6733 106.132 26.4927V26.1445C106.132 24.9639 106.289 23.869 106.602 22.8599C106.924 21.8407 107.404 20.9577 108.04 20.2109C108.685 19.4541 109.483 18.8688 110.431 18.4551C111.39 18.0312 112.505 17.8193 113.776 17.8193C115.139 17.8193 116.34 18.0767 117.379 18.5913C118.428 19.106 119.251 19.8527 119.846 20.8315C120.442 21.8104 120.734 22.9961 120.724 24.3887H115.926C115.936 23.8942 115.86 23.4502 115.699 23.0566C115.537 22.6631 115.285 22.3503 114.942 22.1182C114.609 21.876 114.18 21.7549 113.655 21.7549C113.131 21.7549 112.707 21.8709 112.384 22.103C112.061 22.3351 111.814 22.658 111.642 23.0718C111.481 23.4754 111.37 23.9396 111.309 24.4644C111.259 24.9891 111.233 25.5492 111.233 26.1445V26.4927C111.233 27.0981 111.259 27.6683 111.309 28.2031C111.37 28.7279 111.486 29.1921 111.657 29.5957C111.829 29.9893 112.076 30.3021 112.399 30.5342C112.722 30.7562 113.151 30.8672 113.686 30.8672ZM127.899 11.25V34.5H122.798V11.25H127.899ZM127.293 25.751L126.098 25.7812C126.098 24.6309 126.239 23.5713 126.521 22.6025C126.804 21.6338 127.208 20.7912 127.732 20.0747C128.257 19.3582 128.888 18.8032 129.625 18.4097C130.361 18.0161 131.179 17.8193 132.077 17.8193C132.884 17.8193 133.621 17.9354 134.287 18.1675C134.963 18.3996 135.543 18.7729 136.027 19.2876C136.522 19.8022 136.9 20.4733 137.163 21.3008C137.435 22.1283 137.571 23.1374 137.571 24.3281V34.5H132.44V24.2979C132.44 23.6318 132.344 23.1172 132.152 22.7539C131.971 22.3805 131.708 22.1232 131.365 21.9819C131.022 21.8306 130.603 21.7549 130.109 21.7549C129.514 21.7549 129.029 21.8558 128.656 22.0576C128.282 22.2594 127.995 22.542 127.793 22.9053C127.601 23.2585 127.47 23.6772 127.399 24.1616C127.329 24.646 127.293 25.1758 127.293 25.751ZM155.523 34.5H150.634L150.665 30.4131H155.523C156.533 30.4131 157.385 30.1709 158.082 29.6865C158.788 29.2021 159.323 28.4806 159.686 27.522C160.059 26.5532 160.246 25.3625 160.246 23.9497V22.9961C160.246 21.9365 160.14 21.0081 159.928 20.2109C159.726 19.4036 159.424 18.7326 159.02 18.1978C158.616 17.6528 158.112 17.2441 157.506 16.9717C156.911 16.6992 156.225 16.563 155.448 16.563H150.543V12.4609H155.448C156.941 12.4609 158.309 12.7183 159.55 13.2329C160.801 13.7375 161.881 14.464 162.789 15.4126C163.707 16.3511 164.414 17.4661 164.908 18.7578C165.413 20.0394 165.665 21.4622 165.665 23.0264V23.9497C165.665 25.5037 165.413 26.9266 164.908 28.2183C164.414 29.5099 163.712 30.625 162.804 31.5635C161.896 32.502 160.821 33.2285 159.58 33.7432C158.349 34.2477 156.997 34.5 155.523 34.5ZM153.677 12.4609V34.5H148.364V12.4609H153.677ZM176.7 30.3828V23.6318C176.7 23.1676 176.634 22.769 176.503 22.436C176.372 22.103 176.165 21.8457 175.882 21.6641C175.6 21.4723 175.221 21.3765 174.747 21.3765C174.364 21.3765 174.036 21.4421 173.763 21.5732C173.491 21.7044 173.284 21.9012 173.143 22.1636C173.001 22.4259 172.931 22.759 172.931 23.1626H167.83C167.83 22.4058 167.996 21.7044 168.329 21.0586C168.672 20.4027 169.157 19.8325 169.782 19.3481C170.418 18.8638 171.175 18.4904 172.053 18.228C172.941 17.9556 173.93 17.8193 175.02 17.8193C176.321 17.8193 177.482 18.0363 178.501 18.4702C179.53 18.9041 180.343 19.555 180.938 20.4229C181.533 21.2806 181.831 22.3604 181.831 23.6621V30.3677C181.831 31.4373 181.892 32.2497 182.013 32.8047C182.134 33.3496 182.305 33.8289 182.527 34.2427V34.5H177.411C177.169 33.9954 176.987 33.3799 176.866 32.6533C176.755 31.9167 176.7 31.1598 176.7 30.3828ZM177.32 24.4946L177.351 27.2192H175.095C174.621 27.2192 174.217 27.2848 173.884 27.416C173.561 27.5472 173.299 27.7288 173.097 27.9609C172.905 28.1829 172.764 28.4352 172.673 28.7178C172.593 29.0003 172.552 29.298 172.552 29.6108C172.552 29.9136 172.623 30.186 172.764 30.4282C172.916 30.6603 173.117 30.842 173.37 30.9731C173.622 31.1043 173.904 31.1699 174.217 31.1699C174.782 31.1699 175.262 31.064 175.655 30.8521C176.059 30.63 176.367 30.3626 176.579 30.0498C176.791 29.737 176.896 29.4443 176.896 29.1719L178.017 31.2607C177.815 31.6644 177.583 32.0731 177.32 32.4868C177.068 32.9006 176.75 33.284 176.367 33.6372C175.993 33.9803 175.534 34.2629 174.989 34.4849C174.444 34.6968 173.783 34.8027 173.006 34.8027C171.997 34.8027 171.069 34.5959 170.221 34.1821C169.384 33.7684 168.713 33.1932 168.208 32.4565C167.703 31.7098 167.451 30.8521 167.451 29.8833C167.451 29.0356 167.603 28.2788 167.905 27.6128C168.218 26.9468 168.687 26.3817 169.313 25.9175C169.939 25.4533 170.736 25.1001 171.705 24.8579C172.673 24.6157 173.814 24.4946 175.125 24.4946H177.32ZM189.445 32.5776L193.683 18.1221H199.163L192.578 36.937C192.437 37.3507 192.25 37.7948 192.018 38.269C191.786 38.7534 191.468 39.2126 191.064 39.6465C190.661 40.0804 190.141 40.4336 189.505 40.7061C188.88 40.9785 188.103 41.1147 187.174 41.1147C186.68 41.1147 186.317 41.0895 186.084 41.0391C185.862 40.9987 185.519 40.923 185.055 40.812V37.1641C185.186 37.1641 185.297 37.1641 185.388 37.1641C185.489 37.1641 185.6 37.1641 185.721 37.1641C186.266 37.1641 186.7 37.1086 187.023 36.9976C187.356 36.8866 187.608 36.7251 187.78 36.5132C187.961 36.3013 188.103 36.0439 188.204 35.7412L189.445 32.5776ZM188.37 18.1221L191.594 29.5806L192.154 34.9844H188.733L182.906 18.1221H188.37ZM220.99 27.0376H226.288C226.217 28.5715 225.803 29.9237 225.046 31.0942C224.29 32.2648 223.24 33.1781 221.898 33.834C220.566 34.4798 218.992 34.8027 217.175 34.8027C215.702 34.8027 214.385 34.5555 213.225 34.061C212.074 33.5666 211.095 32.8551 210.288 31.9268C209.491 30.9984 208.88 29.8732 208.457 28.5513C208.043 27.2293 207.836 25.7409 207.836 24.0859V22.8901C207.836 21.2352 208.053 19.7467 208.487 18.4248C208.931 17.0928 209.556 15.9626 210.364 15.0342C211.181 14.0957 212.16 13.3792 213.3 12.8848C214.441 12.3903 215.707 12.1431 217.1 12.1431C219.017 12.1431 220.637 12.4862 221.958 13.1724C223.28 13.8586 224.305 14.8021 225.031 16.0029C225.758 17.1937 226.187 18.5509 226.318 20.0747H221.02C221 19.2472 220.859 18.556 220.596 18.001C220.334 17.4359 219.92 17.012 219.355 16.7295C218.79 16.4469 218.038 16.3057 217.1 16.3057C216.444 16.3057 215.874 16.4268 215.389 16.6689C214.905 16.9111 214.501 17.2946 214.178 17.8193C213.855 18.3441 213.613 19.0252 213.452 19.8628C213.3 20.6903 213.225 21.6893 213.225 22.8599V24.0859C213.225 25.2565 213.295 26.2555 213.437 27.083C213.578 27.9105 213.805 28.5866 214.118 29.1113C214.431 29.6361 214.834 30.0246 215.329 30.2769C215.833 30.519 216.449 30.6401 217.175 30.6401C217.983 30.6401 218.664 30.514 219.219 30.2617C219.774 29.9993 220.203 29.6058 220.505 29.0811C220.808 28.5462 220.97 27.8651 220.99 27.0376ZM237.065 30.3828V23.6318C237.065 23.1676 236.999 22.769 236.868 22.436C236.737 22.103 236.53 21.8457 236.248 21.6641C235.965 21.4723 235.587 21.3765 235.112 21.3765C234.729 21.3765 234.401 21.4421 234.128 21.5732C233.856 21.7044 233.649 21.9012 233.508 22.1636C233.367 22.4259 233.296 22.759 233.296 23.1626H228.195C228.195 22.4058 228.361 21.7044 228.694 21.0586C229.037 20.4027 229.522 19.8325 230.147 19.3481C230.783 18.8638 231.54 18.4904 232.418 18.228C233.306 17.9556 234.295 17.8193 235.385 17.8193C236.687 17.8193 237.847 18.0363 238.866 18.4702C239.896 18.9041 240.708 19.555 241.303 20.4229C241.899 21.2806 242.196 22.3604 242.196 23.6621V30.3677C242.196 31.4373 242.257 32.2497 242.378 32.8047C242.499 33.3496 242.671 33.8289 242.893 34.2427V34.5H237.776C237.534 33.9954 237.353 33.3799 237.231 32.6533C237.12 31.9167 237.065 31.1598 237.065 30.3828ZM237.686 24.4946L237.716 27.2192H235.46C234.986 27.2192 234.583 27.2848 234.25 27.416C233.927 27.5472 233.664 27.7288 233.462 27.9609C233.271 28.1829 233.129 28.4352 233.039 28.7178C232.958 29.0003 232.917 29.298 232.917 29.6108C232.917 29.9136 232.988 30.186 233.129 30.4282C233.281 30.6603 233.483 30.842 233.735 30.9731C233.987 31.1043 234.27 31.1699 234.583 31.1699C235.148 31.1699 235.627 31.064 236.021 30.8521C236.424 30.63 236.732 30.3626 236.944 30.0498C237.156 29.737 237.262 29.4443 237.262 29.1719L238.382 31.2607C238.18 31.6644 237.948 32.0731 237.686 32.4868C237.433 32.9006 237.115 33.284 236.732 33.6372C236.359 33.9803 235.899 34.2629 235.354 34.4849C234.81 34.6968 234.149 34.8027 233.372 34.8027C232.362 34.8027 231.434 34.5959 230.586 34.1821C229.749 33.7684 229.078 33.1932 228.573 32.4565C228.069 31.7098 227.816 30.8521 227.816 29.8833C227.816 29.0356 227.968 28.2788 228.271 27.6128C228.583 26.9468 229.053 26.3817 229.678 25.9175C230.304 25.4533 231.101 25.1001 232.07 24.8579C233.039 24.6157 234.179 24.4946 235.491 24.4946H237.686ZM250.173 22.1787V34.5H245.072V18.1221H249.84L250.173 22.1787ZM255.017 18.001L254.926 22.7388C254.724 22.7186 254.452 22.6934 254.109 22.6631C253.766 22.6328 253.478 22.6177 253.246 22.6177C252.651 22.6177 252.136 22.6883 251.702 22.8296C251.278 22.9608 250.925 23.1626 250.643 23.4351C250.37 23.6974 250.168 24.0304 250.037 24.4341C249.916 24.8377 249.861 25.307 249.871 25.8418L248.947 25.2363C248.947 24.1364 249.053 23.1374 249.265 22.2393C249.487 21.3311 249.8 20.549 250.204 19.8931C250.607 19.2271 251.097 18.7174 251.672 18.3643C252.247 18.001 252.893 17.8193 253.609 17.8193C253.862 17.8193 254.109 17.8345 254.351 17.8647C254.603 17.895 254.825 17.9404 255.017 18.001ZM264.402 34.8027C263.07 34.8027 261.879 34.5959 260.83 34.1821C259.78 33.7583 258.892 33.1781 258.166 32.4414C257.449 31.7048 256.899 30.8571 256.516 29.8984C256.142 28.9398 255.956 27.9256 255.956 26.856V26.2808C255.956 25.0799 256.122 23.9699 256.455 22.9507C256.788 21.9214 257.283 21.0233 257.938 20.2563C258.594 19.4894 259.417 18.894 260.406 18.4702C261.395 18.0363 262.545 17.8193 263.857 17.8193C265.017 17.8193 266.057 18.006 266.975 18.3794C267.893 18.7528 268.67 19.2876 269.306 19.9839C269.952 20.6802 270.441 21.5228 270.774 22.5117C271.118 23.5007 271.289 24.6107 271.289 25.8418V27.9155H257.908V24.7217H266.309V24.3281C266.319 23.7832 266.223 23.319 266.021 22.9355C265.83 22.5521 265.547 22.2594 265.174 22.0576C264.8 21.8558 264.346 21.7549 263.812 21.7549C263.257 21.7549 262.797 21.876 262.434 22.1182C262.081 22.3604 261.803 22.6934 261.602 23.1172C261.41 23.5309 261.274 24.0103 261.193 24.5552C261.112 25.1001 261.072 25.6753 261.072 26.2808V26.856C261.072 27.4614 261.153 28.0114 261.314 28.5059C261.486 29.0003 261.728 29.4242 262.041 29.7773C262.363 30.1204 262.747 30.3879 263.191 30.5796C263.645 30.7713 264.16 30.8672 264.735 30.8672C265.431 30.8672 266.117 30.736 266.793 30.4736C267.47 30.2113 268.05 29.7773 268.534 29.1719L270.85 31.9268C270.517 32.401 270.043 32.8602 269.427 33.3042C268.822 33.7482 268.095 34.1115 267.248 34.394C266.4 34.6665 265.451 34.8027 264.402 34.8027Z" fill="#1A1A1A"/>
<defs>
<clipPath id="clip0_1_546">
<rect width="48" height="48" fill="white"/>
</clipPath>
</defs>
</svg>
