<svg id="svg" xmlns="http://www.w3.org/2000/svg" xmlns:xlink="http://www.w3.org/1999/xlink" width="400" height="200" viewBox="0, 0, 400,200"><g id="svgg"><path id="path0" d="M304.012 60.677 C 303.899 60.820,303.179 72.000,302.411 85.521 C 300.764 114.511,301.167 111.076,299.425 110.999 L 298.029 110.938 296.775 106.975 C 295.357 102.494,295.359 102.500,294.701 102.500 C 293.998 102.500,293.930 102.638,292.479 107.031 L 291.154 111.042 282.035 111.042 L 272.917 111.042 272.917 108.438 L 272.917 105.833 262.708 105.833 L 252.500 105.833 252.500 98.229 L 252.500 90.625 261.667 90.625 L 270.833 90.625 270.833 87.188 L 270.833 83.750 261.667 83.750 L 252.500 83.750 252.500 77.188 L 252.500 70.625 262.188 70.625 L 271.875 70.625 271.875 67.188 L 271.875 63.750 258.333 63.750 L 244.792 63.750 244.792 87.396 L 244.792 111.042 234.797 111.042 L 224.802 111.042 225.022 110.469 C 225.524 109.166,241.667 63.951,241.667 63.851 C 241.667 63.791,239.777 63.767,237.468 63.798 L 233.268 63.854 231.007 70.417 C 227.474 80.670,221.331 99.116,220.913 100.728 C 220.560 102.090,220.525 102.144,220.368 101.561 C 219.242 97.382,217.171 90.573,213.347 78.479 C 210.819 70.482,208.750 63.896,208.750 63.844 C 208.750 63.792,206.818 63.750,204.457 63.750 C 200.850 63.750,200.182 63.797,200.276 64.043 C 200.338 64.205,203.768 74.691,207.898 87.347 C 212.028 100.002,215.466 110.511,215.538 110.699 C 215.659 111.015,214.651 111.042,202.731 111.042 L 189.792 111.042 189.793 110.260 C 189.794 109.600,189.909 109.401,190.532 108.977 C 198.453 103.582,201.837 87.893,197.482 76.752 C 190.501 58.887,165.855 58.114,157.394 75.494 C 151.615 87.365,154.906 103.704,164.323 109.890 C 165.979 110.978,165.747 111.042,160.104 111.042 L 155.000 111.042 155.000 108.438 L 155.000 105.833 144.896 105.833 L 134.792 105.833 134.792 84.792 L 134.792 63.750 130.938 63.750 L 127.083 63.750 127.083 87.371 L 127.083 110.991 118.514 111.076 L 109.944 111.161 108.802 110.063 C 105.572 106.959,101.608 107.024,98.349 110.233 L 97.262 111.302 93.337 111.151 C 89.646 111.010,89.399 111.024,89.209 111.386 C 89.097 111.598,88.739 114.841,88.413 118.594 C 88.086 122.346,87.771 125.417,87.711 125.417 C 87.651 125.417,86.742 111.255,85.692 93.947 C 83.743 61.842,83.746 61.875,82.917 61.875 C 82.092 61.875,82.075 62.039,80.382 86.710 C 79.467 100.033,78.694 110.958,78.665 110.988 C 78.635 111.018,78.053 110.984,77.373 110.913 L 76.135 110.784 74.906 107.157 C 72.844 101.071,72.779 101.072,70.327 107.203 L 68.833 110.938 64.469 111.052 L 60.104 111.167 58.827 109.989 C 55.471 106.894,51.204 106.975,48.019 110.194 L 46.979 111.245 43.738 111.248 C 39.420 111.251,39.937 110.394,39.122 118.906 C 38.747 122.831,38.391 126.042,38.331 126.042 C 38.272 126.042,37.352 111.815,36.286 94.427 C 34.062 58.139,34.280 60.870,33.601 60.699 C 32.487 60.420,32.593 59.368,31.027 86.255 C 30.223 100.050,29.546 111.344,29.522 111.352 C 29.499 111.360,28.849 111.333,28.078 111.291 L 26.678 111.215 25.726 108.160 C 23.485 100.962,23.327 100.925,21.230 107.099 L 19.855 111.146 10.207 111.200 C 3.505 111.238,0.473 111.325,0.279 111.486 C -0.110 111.809,-0.075 112.843,0.330 112.999 C 0.755 113.162,20.487 113.165,20.912 113.002 C 21.105 112.928,21.629 111.680,22.226 109.877 C 22.772 108.226,23.270 106.875,23.332 106.875 C 23.394 106.875,23.806 108.070,24.247 109.531 C 25.334 113.133,25.328 113.125,26.945 113.125 L 28.255 113.125 28.856 115.006 C 29.357 116.572,29.541 116.909,29.955 117.013 C 31.025 117.281,30.961 117.856,32.178 96.999 C 32.805 86.244,33.347 77.416,33.383 77.381 C 33.418 77.346,34.270 90.788,35.276 107.252 C 37.362 141.372,37.182 139.246,37.995 139.339 C 38.940 139.447,38.902 139.673,40.208 126.154 C 40.892 119.068,41.480 113.242,41.515 113.207 C 41.550 113.172,42.982 113.078,44.696 112.999 L 47.813 112.855 49.089 111.667 C 52.288 108.689,54.891 108.693,57.981 111.680 L 59.261 112.917 62.912 112.896 C 64.920 112.885,67.359 112.814,68.333 112.740 L 70.104 112.604 71.343 109.531 C 72.025 107.841,72.643 106.528,72.716 106.614 C 72.789 106.700,73.253 107.943,73.746 109.375 C 74.840 112.551,74.736 112.416,76.226 112.585 L 77.445 112.723 77.923 114.538 C 78.471 116.624,78.618 116.875,79.289 116.875 C 80.100 116.875,80.109 116.798,81.483 96.614 C 82.214 85.872,82.835 77.153,82.863 77.239 C 82.891 77.325,83.757 91.265,84.788 108.216 C 85.818 125.167,86.745 139.120,86.847 139.222 C 86.949 139.324,87.299 139.377,87.624 139.339 C 88.422 139.247,88.341 139.819,89.611 125.313 L 90.706 112.813 94.340 112.967 L 97.975 113.121 99.432 111.746 C 102.518 108.834,104.832 108.821,107.827 111.696 L 109.167 112.983 118.783 112.857 C 126.352 112.758,128.436 112.673,128.571 112.459 C 128.666 112.310,128.745 101.664,128.747 88.802 L 128.750 65.417 130.938 65.417 L 133.125 65.417 133.125 86.563 L 133.125 107.708 143.229 107.708 L 153.333 107.708 153.333 110.208 L 153.333 112.708 160.104 112.708 L 166.875 112.708 166.875 111.049 L 166.875 109.391 165.573 108.512 C 153.210 100.175,153.180 77.274,165.521 68.420 C 173.041 63.025,184.333 63.713,190.889 69.966 C 200.483 79.116,199.788 99.333,189.604 107.346 C 187.829 108.742,187.924 108.550,187.920 110.781 L 187.917 112.708 202.917 112.708 C 213.864 112.708,217.917 112.645,217.917 112.475 C 217.917 112.346,214.552 101.916,210.439 89.298 C 206.327 76.679,202.897 66.140,202.819 65.878 L 202.676 65.403 205.018 65.462 L 207.361 65.521 211.081 77.292 C 216.756 95.246,218.692 101.739,219.413 105.228 L 219.667 106.458 220.442 106.458 C 221.322 106.458,221.296 106.507,222.091 103.333 C 222.931 99.981,225.199 92.988,229.885 79.293 C 232.469 71.743,234.583 65.532,234.583 65.491 C 234.583 65.450,235.621 65.417,236.889 65.417 C 239.162 65.417,239.193 65.423,239.051 65.870 C 238.972 66.119,235.184 76.736,230.633 89.463 L 222.358 112.604 234.239 112.658 C 243.605 112.700,246.154 112.656,246.286 112.450 C 246.377 112.305,246.453 101.664,246.455 88.802 L 246.458 65.417 258.333 65.417 L 270.208 65.417 270.208 67.188 L 270.208 68.958 260.521 68.958 L 250.833 68.958 250.833 77.292 L 250.833 85.625 260.000 85.625 L 269.167 85.625 269.167 87.292 L 269.167 88.958 260.000 88.958 L 250.833 88.958 250.833 98.333 L 250.833 107.708 261.042 107.708 L 271.250 107.708 271.250 109.879 C 271.250 111.073,271.307 112.198,271.376 112.379 C 271.489 112.673,272.619 112.708,281.984 112.708 L 292.466 112.708 292.798 111.823 C 292.981 111.336,293.482 109.881,293.912 108.590 L 294.692 106.243 295.599 109.215 C 296.703 112.834,296.609 112.708,298.237 112.708 L 299.549 112.708 300.208 114.688 C 300.842 116.589,300.892 116.667,301.480 116.667 C 302.428 116.667,302.395 116.983,303.570 96.209 C 304.177 85.472,304.697 76.711,304.725 76.738 C 304.752 76.766,305.633 90.707,306.683 107.717 C 308.619 139.106,308.625 139.167,309.497 139.167 C 310.279 139.167,310.298 139.045,311.583 125.573 L 312.810 112.708 315.889 112.708 L 318.969 112.708 320.328 111.444 C 323.594 108.405,326.723 108.437,329.510 111.537 L 330.453 112.586 335.800 112.528 C 339.568 112.487,341.214 112.398,341.377 112.225 C 341.570 112.019,342.102 110.750,343.792 106.458 C 343.974 105.996,344.110 106.261,344.999 108.824 C 346.175 112.210,346.072 112.074,347.577 112.229 L 348.755 112.351 349.054 113.415 C 349.218 114.000,349.454 114.876,349.579 115.361 C 349.835 116.357,350.405 116.799,351.014 116.473 C 351.502 116.212,351.399 117.366,352.810 96.354 C 353.440 86.958,354.027 78.802,354.114 78.229 C 354.221 77.519,354.854 86.891,356.104 107.708 C 358.000 139.265,357.992 139.167,358.824 139.167 C 359.676 139.167,359.707 138.967,360.810 126.354 C 361.401 119.594,361.938 113.709,362.003 113.276 L 362.122 112.490 365.749 112.631 L 369.377 112.773 370.714 111.488 C 373.791 108.533,376.078 108.457,378.998 111.212 L 380.443 112.576 389.960 112.521 C 399.822 112.464,400.000 112.447,400.000 111.579 C 400.000 110.689,399.945 110.685,390.459 110.782 L 381.354 110.876 380.240 109.816 C 376.900 106.639,372.981 106.682,369.680 109.930 L 368.575 111.018 364.860 110.846 C 362.817 110.751,360.994 110.753,360.809 110.850 C 360.379 111.075,360.349 111.297,359.659 119.315 C 359.341 123.006,359.063 126.006,359.040 125.982 C 359.017 125.957,358.140 111.641,357.091 94.167 C 355.103 61.037,355.168 61.809,354.336 61.708 C 353.421 61.598,353.422 61.589,351.793 85.625 C 350.919 98.516,350.155 109.445,350.095 109.912 L 349.985 110.762 348.819 110.603 C 347.357 110.405,347.570 110.727,346.146 106.563 C 344.174 100.793,344.069 100.810,341.480 107.316 L 340.186 110.570 339.103 110.700 C 338.508 110.771,336.529 110.831,334.706 110.832 L 331.392 110.833 330.182 109.679 C 326.912 106.560,322.750 106.592,319.442 109.761 L 318.364 110.795 314.903 110.946 C 312.029 111.072,311.414 111.155,311.272 111.434 C 311.178 111.619,310.786 115.131,310.401 119.238 C 310.015 123.345,309.677 126.626,309.650 126.529 C 309.622 126.433,308.694 111.635,307.588 93.646 C 305.553 60.552,305.541 60.417,304.688 60.417 C 304.429 60.417,304.125 60.534,304.012 60.677 " stroke="none" fill="#000000" fill-rule="evenodd"></path></g></svg>